<svg aria-hidden="true" style="position:absolute;width:0;height:0;overflow:hidden" xmlns="http://www.w3.org/2000/svg">
  <defs>
    <symbol id="icon-comment" viewBox="0 0 32 32">
      <path d="M16 2.668c-7.364 0-13.333 5.969-13.333 13.333a13.309 13.309 0 0 0 1.268 5.683l-1.24 6.049a1.342 1.342 0 0 0 .363 1.21 1.328 1.328 0 0 0 1.21.363l6.049-1.24A13.3 13.3 0 0 0 16 29.333c7.364 0 13.333-5.968 13.333-13.333 0-7.363-5.969-13.333-13.333-13.333v.001z"/>
    </symbol>
    <symbol id="icon-view" viewBox="0 0 32 32">
      <path d="M16 20a4 4 0 1 0 0-8 4 4 0 0 0 0 8z"/>
      <path d="M30.94 15.66A16.694 16.694 0 0 0 16 5 16.689 16.689 0 0 0 1.06 15.66c-.079.22-.079.46 0 .68A16.694 16.694 0 0 0 16 27a16.696 16.696 0 0 0 14.94-10.66c.079-.22.079-.46 0-.68zM16 22.5a6.5 6.5 0 1 1 6.5-6.5 6.508 6.508 0 0 1-6.5 6.5z"/>
    </symbol>
    <symbol id="icon-download" viewBox="0 0 32 32">
      <path d="m16 21.333-6.667-6.667 1.867-1.933 3.467 3.467V5.333h2.667V16.2l3.467-3.467 1.867 1.933-6.667 6.667zm-8 5.334c-.733 0-1.361-.261-1.884-.784s-.784-1.15-.783-1.883v-4H8v4h16v-4h2.667v4c0 .733-.261 1.361-.784 1.884s-1.15.784-1.883.783H8z"/>
    </symbol>
    <symbol id="icon-like" viewBox="0 0 32 32">
      <path d="M29.333 16c0 7.364-5.969 13.333-13.333 13.333-2.133 0-4.149-.501-5.936-1.392a2.176 2.176 0 0 0-1.532-.177l-2.968.795a1.738 1.738 0 0 1-1.673-.45 1.734 1.734 0 0 1-.448-1.674l.793-2.968a2.174 2.174 0 0 0-.179-1.531 13.28 13.28 0 0 1-1.391-5.937c0-7.364 5.969-13.333 13.333-13.333s13.333 5.969 13.333 13.333zM10 14.811c0 1.825 1.759 3.74 3.372 5.112 1.097.933 1.647 1.401 2.628 1.401s1.531-.467 2.628-1.401C20.241 18.55 22 16.636 22 14.811c0-3.569-3.3-4.901-6-2.144-2.7-2.757-6-1.425-6 2.144z"/>
    </symbol>
  </defs>
</svg>
